<svg xmlns="http://www.w3.org/2000/svg" aria-hidden="true" style="position:absolute;width:0;height:0;overflow:hidden">
  <defs>
    <symbol id="icon-offer_benefit3" viewBox="0 0 34 32">
      <path fill="none" stroke="#42474a" stroke-miterlimit="10" stroke-width="2.175" d="M26.428 24.362a13.39 13.39 0 0 1-10.293 4.784c-7.43 0-13.411-6.017-13.411-13.411 0-7.43 6.017-13.447 13.411-13.447 6.633 0 12.142 4.821 13.229 11.127" style="stroke:var(--color1, #42474a)"/>
      <path d="m25.558 9.719 3.733 3.081 3.081-3.733.29 2.9-3.081 3.733-3.733-3.081-.29-2.9zM9.368 16.762l.285-1.183 3.427-2.164c.768-.496 1.203-.958 1.307-1.387.076-.314.037-.591-.116-.83-.145-.238-.371-.393-.677-.467-.605-.146-1.129.06-1.571.618l-1.144-1.102c.386-.491.851-.824 1.396-1.001s1.101-.197 1.668-.06c.728.175 1.296.556 1.706 1.141.412.577.525 1.253.338 2.026-.201.835-.848 1.586-1.942 2.255l-1.953 1.194 3.021.728-.368 1.528-5.376-1.296zm12.833.091-.355 1.47-.862-.208-.33 1.367-1.597-.385.33-1.367-3.803-.917.355-1.47 3.931-4.559 1.7.41-3.92 4.562 2.091.504.46-1.907 1.597.385-.46 1.907.862.208z"/>
    </symbol>
    <symbol id="icon-offer_benefit1" viewBox="0 0 27 32">
      <path d="M13.265 30.367a.874.874 0 0 1-.417-.107C7.15 27.196 3.216 22.07 1.487 15.43.176 10.447.557 6.418.581 6.251a.904.904 0 0 1 .894-.811c6.962 0 11.11-4.184 11.158-4.22a.82.82 0 0 1 .632-.274c.238 0 .477.095.644.274.036.036 4.232 4.22 11.158 4.22.465 0 .846.346.894.811.012.167.405 4.208-.894 9.191-1.729 6.64-5.663 11.766-11.361 14.83-.155.06-.298.095-.441.095zM2.309 7.217c-.048 1.371 0 4.387.906 7.832 1.586 6.032 4.971 10.55 10.037 13.411 2.742-1.55 5.019-3.612 6.759-6.139 1.478-2.134 2.587-4.602 3.302-7.331.894-3.433.93-6.414.894-7.772-5.675-.25-9.501-2.945-10.956-4.16-1.442 1.204-5.257 3.91-10.944 4.16z"/>
      <path d="M10.618 20.473a.884.884 0 0 1-.644-.274l-2.301-2.408c-.346-.358-.334-.918.024-1.264s.918-.334 1.264.024l1.657 1.729 7.57-7.916c.346-.358.906-.37 1.264-.024s.37.906.024 1.264l-8.213 8.595a.883.883 0 0 1-.644.274z"/>
    </symbol>
    <symbol id="icon-command" viewBox="0 0 32 32">
      <path d="M23 28c-2.757 0-5-2.243-5-5v-3h-4v3c0 2.757-2.243 5-5 5s-5-2.243-5-5 2.243-5 5-5h3v-4H9c-2.757 0-5-2.243-5-5s2.243-5 5-5 5 2.243 5 5v3h4V9c0-2.757 2.243-5 5-5s5 2.243 5 5-2.243 5-5 5h-3v4h3c2.757 0 5 2.243 5 5s-2.243 5-5 5zm-3-8v3c0 1.654 1.346 3 3 3s3-1.346 3-3-1.346-3-3-3h-3zM9 20c-1.654 0-3 1.346-3 3s1.346 3 3 3 3-1.346 3-3v-3H9zm5-2h4v-4h-4v4zm6-6h3c1.654 0 3-1.346 3-3s-1.346-3-3-3-3 1.346-3 3v3zM9 6C7.346 6 6 7.346 6 9s1.346 3 3 3h3V9c0-1.654-1.346-3-3-3z"/>
    </symbol>
     <symbol id="icon-tick" viewBox="0 0 38 32">
      <path fill="#41944b" d="M.886 18.798c2.097 1.618 2.891 1.845 4.639 4.272 2.86 3.981 2.446 5.631 3.304 6.375s4.734 1.359 7.403-2.104 6.799-13.01 12.105-18.738S36.121 1.224 37.71.351s-3.463-.68-13.376 7.346C17.408 13.296 12.546 21.03 12.546 21.03s-1.366-4.207-4.448-7.023c-3.082-2.816-10.676 2.136-7.212 4.79z" style="fill:var(--color1, #41944b)"/>
    </symbol>
  </defs>
</svg>
