<svg xmlns="http://www.w3.org/2000/svg" aria-hidden="true" style="position:absolute;width:0;height:0;overflow:hidden">
  <defs>
    <symbol id="icon-tick" viewBox="0 0 38 32">
      <path fill="#41944b" d="M.886 18.798c2.097 1.618 2.891 1.845 4.639 4.272 2.86 3.981 2.446 5.631 3.304 6.375s4.734 1.359 7.403-2.104 6.799-13.01 12.105-18.738S36.121 1.224 37.71.351s-3.463-.68-13.376 7.346C17.408 13.296 12.546 21.03 12.546 21.03s-1.366-4.207-4.448-7.023c-3.082-2.816-10.676 2.136-7.212 4.79z" style="fill:var(--color1, #41944b)"/>
    </symbol>
    <symbol id="icon-command" viewBox="0 0 32 32">
      <path d="M23 28c-2.757 0-5-2.243-5-5v-3h-4v3c0 2.757-2.243 5-5 5s-5-2.243-5-5 2.243-5 5-5h3v-4H9c-2.757 0-5-2.243-5-5s2.243-5 5-5 5 2.243 5 5v3h4V9c0-2.757 2.243-5 5-5s5 2.243 5 5-2.243 5-5 5h-3v4h3c2.757 0 5 2.243 5 5s-2.243 5-5 5zm-3-8v3c0 1.654 1.346 3 3 3s3-1.346 3-3-1.346-3-3-3h-3zM9 20c-1.654 0-3 1.346-3 3s1.346 3 3 3 3-1.346 3-3v-3H9zm5-2h4v-4h-4v4zm6-6h3c1.654 0 3-1.346 3-3s-1.346-3-3-3-3 1.346-3 3v3zM9 6C7.346 6 6 7.346 6 9s1.346 3 3 3h3V9c0-1.654-1.346-3-3-3z"/>
    </symbol>
  </defs>
</svg>
